<mxfile host="app.diagrams.net" modified="2022-12-09T09:11:48.221Z" agent="5.0 (Macintosh; Intel Mac OS X 10_15_7) AppleWebKit/537.36 (KHTML, like Gecko) Chrome/108.0.0.0 Safari/537.36" etag="M8dGUdrD4WTK7HiOob7J" version="20.6.2" type="github">
  <diagram id="8E8K8SAzJTcxabnhx9FE" name="第 1 页">
    <mxGraphModel dx="1183" dy="798" grid="1" gridSize="10" guides="1" tooltips="1" connect="1" arrows="1" fold="1" page="1" pageScale="1" pageWidth="827" pageHeight="1169" math="0" shadow="0">
      <root>
        <mxCell id="0" />
        <mxCell id="1" parent="0" />
        <mxCell id="JZ2qs8BOucZ2UuDRDxHz-5" value="" style="endArrow=classic;html=1;rounded=0;fontSize=22;strokeWidth=2;dashed=1;" parent="1" edge="1">
          <mxGeometry width="50" height="50" relative="1" as="geometry">
            <mxPoint x="150" y="442.5" as="sourcePoint" />
            <mxPoint x="660" y="442.5" as="targetPoint" />
          </mxGeometry>
        </mxCell>
        <mxCell id="JZ2qs8BOucZ2UuDRDxHz-4" value="" style="endArrow=classic;html=1;rounded=0;fontSize=22;strokeWidth=2;dashed=1;" parent="1" edge="1">
          <mxGeometry width="50" height="50" relative="1" as="geometry">
            <mxPoint x="150" y="342.5" as="sourcePoint" />
            <mxPoint x="660" y="342.5" as="targetPoint" />
          </mxGeometry>
        </mxCell>
        <mxCell id="JZ2qs8BOucZ2UuDRDxHz-1" value="" style="rounded=0;whiteSpace=wrap;html=1;strokeWidth=2;dashed=1;fillColor=none;" parent="1" vertex="1">
          <mxGeometry x="270" y="290" width="290" height="210" as="geometry" />
        </mxCell>
        <mxCell id="JZ2qs8BOucZ2UuDRDxHz-2" value="&lt;b&gt;&lt;font style=&quot;font-size: 22px;&quot;&gt;Heap Area&lt;/font&gt;&lt;/b&gt;" style="rounded=1;whiteSpace=wrap;html=1;strokeWidth=2;fillColor=#f5f5f5;strokeColor=#666666;fontColor=#333333;" parent="1" vertex="1">
          <mxGeometry x="290" y="313" width="250" height="60" as="geometry" />
        </mxCell>
        <mxCell id="JZ2qs8BOucZ2UuDRDxHz-3" value="&lt;b&gt;&lt;font style=&quot;font-size: 22px;&quot;&gt;Method Area&lt;/font&gt;&lt;/b&gt;" style="rounded=1;whiteSpace=wrap;html=1;strokeWidth=2;fillColor=#f5f5f5;fontColor=#333333;strokeColor=#666666;" parent="1" vertex="1">
          <mxGeometry x="290" y="413" width="250" height="60" as="geometry" />
        </mxCell>
        <mxCell id="JZ2qs8BOucZ2UuDRDxHz-7" value="&lt;b&gt;Data Area&lt;/b&gt;" style="text;html=1;resizable=0;autosize=1;align=center;verticalAlign=middle;points=[];fillColor=none;strokeColor=none;rounded=0;strokeWidth=2;fontSize=22;" parent="1" vertex="1">
          <mxGeometry x="352" y="250" width="130" height="40" as="geometry" />
        </mxCell>
        <mxCell id="echMy0fta9CoyD65nAfY-2" value="&lt;b&gt;&lt;font style=&quot;font-size: 28px;&quot;&gt;Person&amp;nbsp; p = new Person(&quot;Leon&quot;,22);&lt;/font&gt;&lt;/b&gt;" style="text;html=1;align=center;verticalAlign=middle;resizable=0;points=[];autosize=1;strokeColor=none;fillColor=none;" vertex="1" parent="1">
          <mxGeometry x="167" y="150" width="500" height="50" as="geometry" />
        </mxCell>
        <mxCell id="echMy0fta9CoyD65nAfY-3" value="" style="curved=1;endArrow=classic;html=1;rounded=0;fontSize=28;strokeWidth=2;" edge="1" parent="1" source="echMy0fta9CoyD65nAfY-2" target="JZ2qs8BOucZ2UuDRDxHz-2">
          <mxGeometry width="50" height="50" relative="1" as="geometry">
            <mxPoint x="580" y="201" as="sourcePoint" />
            <mxPoint x="530" y="251" as="targetPoint" />
            <Array as="points">
              <mxPoint x="550" y="200" />
              <mxPoint x="580" y="251" />
            </Array>
          </mxGeometry>
        </mxCell>
        <mxCell id="echMy0fta9CoyD65nAfY-4" value="" style="curved=1;endArrow=classic;html=1;rounded=0;strokeWidth=2;fontSize=28;entryX=0;entryY=0;entryDx=0;entryDy=0;" edge="1" parent="1" target="JZ2qs8BOucZ2UuDRDxHz-3">
          <mxGeometry width="50" height="50" relative="1" as="geometry">
            <mxPoint x="260" y="190" as="sourcePoint" />
            <mxPoint x="330" y="200" as="targetPoint" />
            <Array as="points">
              <mxPoint x="210" y="280" />
            </Array>
          </mxGeometry>
        </mxCell>
        <mxCell id="echMy0fta9CoyD65nAfY-5" value="" style="sketch=0;pointerEvents=1;shadow=0;dashed=0;html=1;strokeColor=none;labelPosition=center;verticalLabelPosition=bottom;verticalAlign=top;outlineConnect=0;align=center;shape=mxgraph.office.security.lock_protected;fillColor=#DA4026;fontSize=28;" vertex="1" parent="1">
          <mxGeometry x="252" y="261" width="38" height="52" as="geometry" />
        </mxCell>
        <mxCell id="echMy0fta9CoyD65nAfY-6" value="&lt;b&gt;Thread&lt;/b&gt;" style="text;html=1;align=center;verticalAlign=middle;resizable=0;points=[];autosize=1;strokeColor=none;fillColor=none;fontSize=28;" vertex="1" parent="1">
          <mxGeometry x="8" y="368" width="120" height="50" as="geometry" />
        </mxCell>
        <mxCell id="echMy0fta9CoyD65nAfY-7" value="" style="shape=curlyBracket;whiteSpace=wrap;html=1;rounded=1;labelPosition=left;verticalLabelPosition=middle;align=right;verticalAlign=middle;fontSize=28;strokeWidth=2;" vertex="1" parent="1">
          <mxGeometry x="123" y="343" width="20" height="100" as="geometry" />
        </mxCell>
      </root>
    </mxGraphModel>
  </diagram>
</mxfile>
